<svg width="7060" height="3017" viewBox="0 0 7060 3017" fill="none" xmlns="http://www.w3.org/2000/svg">
<path d="M3003 1058L3515 2749" stroke="url(#paint0_linear_18_166)" stroke-width="50"/>
<path d="M5107 2021L4627 2634" stroke="url(#paint1_linear_18_166)" stroke-width="50"/>
<path d="M4727 964L6089 1775" stroke="url(#paint2_linear_18_166)" stroke-width="50"/>
<path d="M4691 1104L5183 1869" stroke="url(#paint3_linear_18_166)" stroke-width="50"/>
<path d="M2051 1897L296 2704" stroke="url(#paint4_linear_18_166)" stroke-width="50"/>
<path d="M2942 925L5195 1958" stroke="url(#paint5_linear_18_166)" stroke-width="50"/>
<path d="M4652 1038L4108 1747" stroke="url(#paint6_linear_18_166)" stroke-width="50"/>
<path d="M4137 2077L4370 2540" stroke="url(#paint7_linear_18_166)" stroke-width="50"/>
<path d="M3917 2077L3645 2568" stroke="url(#paint8_linear_18_166)" stroke-width="50"/>
<circle r="257.5" transform="matrix(-1 0 0 1 4010.5 1896.5)" fill="url(#paint9_linear_18_166)"/>
<circle r="257.5" transform="matrix(-1 0 0 1 4498.5 2759.5)" fill="url(#paint10_linear_18_166)"/>
<circle r="257.5" transform="matrix(-1 0 0 1 3514.5 2759.5)" fill="url(#paint11_linear_18_166)"/>
<path d="M4137 2077L4370 2540" stroke="url(#paint12_linear_18_166)" stroke-width="50"/>
<path d="M3917 2077L3645 2568" stroke="url(#paint13_linear_18_166)" stroke-width="50"/>
<circle r="257.5" transform="matrix(-1 0 0 1 4498.5 2759.5)" fill="url(#paint14_linear_18_166)"/>
<circle r="257.5" transform="matrix(-1 0 0 1 3514.5 2759.5)" fill="url(#paint15_linear_18_166)"/>
<path d="M4137 2077L4370 2540" stroke="url(#paint16_linear_18_166)" stroke-width="50"/>
<path d="M3917 2077L3645 2568" stroke="url(#paint17_linear_18_166)" stroke-width="50"/>
<circle r="257.5" transform="matrix(-1 0 0 1 4010.5 1896.5)" fill="url(#paint18_linear_18_166)"/>
<circle r="257.5" transform="matrix(-1 0 0 1 5182.5 1925.5)" fill="url(#paint19_linear_18_166)"/>
<circle r="257.5" transform="matrix(-1 0 0 1 4498.5 2759.5)" fill="url(#paint20_linear_18_166)"/>
<circle r="257.5" transform="matrix(-1 0 0 1 3514.5 2759.5)" fill="url(#paint21_linear_18_166)"/>
<path d="M3917 2077L3645 2568" stroke="url(#paint22_linear_18_166)" stroke-width="50"/>
<circle r="257.5" transform="matrix(-1 0 0 1 4498.5 2759.5)" fill="url(#paint23_linear_18_166)"/>
<circle r="257.5" transform="matrix(-1 0 0 1 3514.5 2759.5)" fill="url(#paint24_linear_18_166)"/>
<path d="M2899 1104L2524 2634" stroke="url(#paint25_linear_18_166)" stroke-width="50"/>
<path d="M2899 1058L2051 1775" stroke="url(#paint26_linear_18_166)" stroke-width="50"/>
<path d="M3623 324L1212 925" stroke="url(#paint27_linear_18_166)" stroke-width="50"/>
<path d="M3623 324L1212 925" stroke="url(#paint28_linear_18_166)" stroke-width="50"/>
<path d="M1219 1162L837 1691" stroke="url(#paint29_linear_18_166)" stroke-width="50"/>
<path d="M1491 1162L1852 1710" stroke="url(#paint30_linear_18_166)" stroke-width="50"/>
<path d="M6011 1177L6214 1710" stroke="url(#paint31_linear_18_166)" stroke-width="50"/>
<path d="M6011 1177L6214 1710" stroke="url(#paint32_linear_18_166)" stroke-width="50"/>
<path d="M3859 397L4528 811" stroke="url(#paint33_linear_18_166)" stroke-width="50"/>
<path d="M4032 292L5785 864" stroke="url(#paint34_linear_18_166)" stroke-width="50"/>
<path d="M1831 2077L1598 2540" stroke="url(#paint35_linear_18_166)" stroke-width="50"/>
<path d="M6253 2066L5995 2554" stroke="url(#paint36_linear_18_166)" stroke-width="50"/>
<path d="M6357 2066L6759 2634" stroke="url(#paint37_linear_18_166)" stroke-width="50"/>
<path d="M5264 2021L5834 2660" stroke="url(#paint38_linear_18_166)" stroke-width="50"/>
<path d="M2051 2077L2323 2568" stroke="url(#paint39_linear_18_166)" stroke-width="50"/>
<circle cx="1957.5" cy="1896.5" r="257.5" fill="url(#paint40_linear_18_166)"/>
<circle cx="6252.5" cy="1896.5" r="257.5" fill="url(#paint41_linear_18_166)"/>
<circle cx="3824.5" cy="257.5" r="257.5" fill="url(#paint42_linear_18_166)"/>
<circle cx="1339.5" cy="963.5" r="257.5" fill="url(#paint43_linear_18_166)"/>
<circle cx="2941.5" cy="963.5" r="257.5" fill="url(#paint44_linear_18_166)"/>
<circle cx="4651.5" cy="963.5" r="257.5" fill="url(#paint45_linear_18_166)"/>
<circle cx="1469.5" cy="2759.5" r="257.5" fill="url(#paint46_linear_18_166)"/>
<circle cx="2453.5" cy="2759.5" r="257.5" fill="url(#paint47_linear_18_166)"/>
<path d="M1831 2077L1598 2540" stroke="url(#paint48_linear_18_166)" stroke-width="50"/>
<path d="M2051 2077L2323 2568" stroke="url(#paint49_linear_18_166)" stroke-width="50"/>
<circle cx="1469.5" cy="2759.5" r="257.5" fill="url(#paint50_linear_18_166)"/>
<path d="M619 2066L386 2529" stroke="url(#paint51_linear_18_166)" stroke-width="50"/>
<circle cx="257.5" cy="2748.5" r="257.5" fill="url(#paint52_linear_18_166)"/>
<path d="M619 2066L386 2529" stroke="url(#paint53_linear_18_166)" stroke-width="50"/>
<circle cx="2453.5" cy="2759.5" r="257.5" fill="url(#paint54_linear_18_166)"/>
<path d="M1491 1162L1852 1710" stroke="url(#paint55_linear_18_166)" stroke-width="50"/>
<path d="M1831 2077L1598 2540" stroke="url(#paint56_linear_18_166)" stroke-width="50"/>
<path d="M694 1966L1407 2634" stroke="url(#paint57_linear_18_166)" stroke-width="50"/>
<path d="M2051 2077L2323 2568" stroke="url(#paint58_linear_18_166)" stroke-width="50"/>
<circle cx="1957.5" cy="1896.5" r="257.5" fill="url(#paint59_linear_18_166)"/>
<circle cx="1469.5" cy="2759.5" r="257.5" fill="url(#paint60_linear_18_166)"/>
<circle cx="2453.5" cy="2759.5" r="257.5" fill="url(#paint61_linear_18_166)"/>
<path d="M3723 397L3072 811" stroke="url(#paint62_linear_18_166)" stroke-width="50"/>
<path d="M2051 2077L2323 2568" stroke="url(#paint63_linear_18_166)" stroke-width="50"/>
<circle cx="1469.5" cy="2759.5" r="257.5" fill="url(#paint64_linear_18_166)"/>
<circle cx="2453.5" cy="2759.5" r="257.5" fill="url(#paint65_linear_18_166)"/>
<circle cx="5885.5" cy="2759.5" r="257.5" fill="url(#paint66_linear_18_166)"/>
<circle cx="6802.5" cy="2748.5" r="257.5" fill="url(#paint67_linear_18_166)"/>
<circle cx="5885.5" cy="963.5" r="257.5" fill="url(#paint68_linear_18_166)"/>
<circle cx="724.5" cy="1896.5" r="257.5" fill="url(#paint69_linear_18_166)"/>
<defs>
<linearGradient id="paint0_linear_18_166" x1="3422.87" y1="2473.56" x2="3275.07" y2="1265.57" gradientUnits="userSpaceOnUse">
<stop stop-color="#C64A49"/>
<stop offset="1" stop-color="#ED696D"/>
</linearGradient>
<linearGradient id="paint1_linear_18_166" x1="4699.29" y1="2528.12" x2="5065.59" y2="2127.62" gradientUnits="userSpaceOnUse">
<stop stop-color="#C64A49"/>
<stop offset="1" stop-color="#ED696D"/>
</linearGradient>
<linearGradient id="paint2_linear_18_166" x1="5860.92" y1="1648.92" x2="5017.72" y2="950.286" gradientUnits="userSpaceOnUse">
<stop stop-color="#C64A49"/>
<stop offset="1" stop-color="#ED696D"/>
</linearGradient>
<linearGradient id="paint3_linear_18_166" x1="5095.13" y1="1747.82" x2="4801.4" y2="1186.65" gradientUnits="userSpaceOnUse">
<stop stop-color="#C64A49"/>
<stop offset="1" stop-color="#ED696D"/>
</linearGradient>
<linearGradient id="paint4_linear_18_166" x1="580.885" y1="2563.8" x2="1868.64" y2="2244.52" gradientUnits="userSpaceOnUse">
<stop stop-color="#C64A49"/>
<stop offset="1" stop-color="#ED696D"/>
</linearGradient>
<linearGradient id="paint5_linear_18_166" x1="4821.31" y1="1795.86" x2="3501.02" y2="751.397" gradientUnits="userSpaceOnUse">
<stop stop-color="#C64A49"/>
<stop offset="1" stop-color="#ED696D"/>
</linearGradient>
<linearGradient id="paint6_linear_18_166" x1="4190.76" y1="1625.41" x2="4611.46" y2="1166.73" gradientUnits="userSpaceOnUse">
<stop stop-color="#C64A49"/>
<stop offset="1" stop-color="#ED696D"/>
</linearGradient>
<linearGradient id="paint7_linear_18_166" x1="4339.18" y1="2460.16" x2="4160.22" y2="2145.59" gradientUnits="userSpaceOnUse">
<stop stop-color="#C64A49"/>
<stop offset="1" stop-color="#ED696D"/>
</linearGradient>
<linearGradient id="paint8_linear_18_166" x1="3697" y1="2491.37" x2="3867.68" y2="2138.65" gradientUnits="userSpaceOnUse">
<stop stop-color="#C64A49"/>
<stop offset="1" stop-color="#ED696D"/>
</linearGradient>
<linearGradient id="paint9_linear_18_166" x1="515" y1="161.5" x2="257.5" y2="515" gradientUnits="userSpaceOnUse">
<stop stop-color="#C34746"/>
<stop offset="1" stop-color="#EC686C"/>
</linearGradient>
<linearGradient id="paint10_linear_18_166" x1="537.5" y1="-123.5" x2="209" y2="590" gradientUnits="userSpaceOnUse">
<stop stop-color="#C34746"/>
<stop offset="1" stop-color="#EC686C"/>
</linearGradient>
<linearGradient id="paint11_linear_18_166" x1="-26.5" y1="-70.5" x2="208" y2="480.5" gradientUnits="userSpaceOnUse">
<stop stop-color="#C34746"/>
<stop offset="1" stop-color="#EC686C"/>
</linearGradient>
<linearGradient id="paint12_linear_18_166" x1="4339.18" y1="2460.16" x2="4160.22" y2="2145.59" gradientUnits="userSpaceOnUse">
<stop stop-color="#C64A49"/>
<stop offset="1" stop-color="#ED696D"/>
</linearGradient>
<linearGradient id="paint13_linear_18_166" x1="3697" y1="2491.37" x2="3867.68" y2="2138.65" gradientUnits="userSpaceOnUse">
<stop stop-color="#C64A49"/>
<stop offset="1" stop-color="#ED696D"/>
</linearGradient>
<linearGradient id="paint14_linear_18_166" x1="537.5" y1="-123.5" x2="209" y2="590" gradientUnits="userSpaceOnUse">
<stop stop-color="#C34746"/>
<stop offset="1" stop-color="#EC686C"/>
</linearGradient>
<linearGradient id="paint15_linear_18_166" x1="-26.5" y1="-70.5" x2="208" y2="480.5" gradientUnits="userSpaceOnUse">
<stop stop-color="#C34746"/>
<stop offset="1" stop-color="#EC686C"/>
</linearGradient>
<linearGradient id="paint16_linear_18_166" x1="4339.18" y1="2460.16" x2="4160.22" y2="2145.59" gradientUnits="userSpaceOnUse">
<stop stop-color="#C64A49"/>
<stop offset="1" stop-color="#ED696D"/>
</linearGradient>
<linearGradient id="paint17_linear_18_166" x1="3697" y1="2491.37" x2="3867.68" y2="2138.65" gradientUnits="userSpaceOnUse">
<stop stop-color="#C64A49"/>
<stop offset="1" stop-color="#ED696D"/>
</linearGradient>
<linearGradient id="paint18_linear_18_166" x1="515" y1="161.5" x2="257.5" y2="515" gradientUnits="userSpaceOnUse">
<stop stop-color="#C34746"/>
<stop offset="1" stop-color="#EC686C"/>
</linearGradient>
<linearGradient id="paint19_linear_18_166" x1="515" y1="161.5" x2="257.5" y2="515" gradientUnits="userSpaceOnUse">
<stop stop-color="#C34746"/>
<stop offset="1" stop-color="#EC686C"/>
</linearGradient>
<linearGradient id="paint20_linear_18_166" x1="537.5" y1="-123.5" x2="209" y2="590" gradientUnits="userSpaceOnUse">
<stop stop-color="#C34746"/>
<stop offset="1" stop-color="#EC686C"/>
</linearGradient>
<linearGradient id="paint21_linear_18_166" x1="-26.5" y1="-70.5" x2="208" y2="480.5" gradientUnits="userSpaceOnUse">
<stop stop-color="#C34746"/>
<stop offset="1" stop-color="#EC686C"/>
</linearGradient>
<linearGradient id="paint22_linear_18_166" x1="3697" y1="2491.37" x2="3867.68" y2="2138.65" gradientUnits="userSpaceOnUse">
<stop stop-color="#C64A49"/>
<stop offset="1" stop-color="#ED696D"/>
</linearGradient>
<linearGradient id="paint23_linear_18_166" x1="537.5" y1="-123.5" x2="209" y2="590" gradientUnits="userSpaceOnUse">
<stop stop-color="#C34746"/>
<stop offset="1" stop-color="#EC686C"/>
</linearGradient>
<linearGradient id="paint24_linear_18_166" x1="-26.5" y1="-70.5" x2="208" y2="480.5" gradientUnits="userSpaceOnUse">
<stop stop-color="#C34746"/>
<stop offset="1" stop-color="#EC686C"/>
</linearGradient>
<linearGradient id="paint25_linear_18_166" x1="2577.5" y1="2380.61" x2="2995.56" y2="1375.74" gradientUnits="userSpaceOnUse">
<stop stop-color="#C64A49"/>
<stop offset="1" stop-color="#ED696D"/>
</linearGradient>
<linearGradient id="paint26_linear_18_166" x1="2184.95" y1="1650.8" x2="2824.99" y2="1219.5" gradientUnits="userSpaceOnUse">
<stop stop-color="#C64A49"/>
<stop offset="1" stop-color="#ED696D"/>
</linearGradient>
<linearGradient id="paint27_linear_18_166" x1="1606.15" y1="818.137" x2="3293.61" y2="810.821" gradientUnits="userSpaceOnUse">
<stop stop-color="#C64A49"/>
<stop offset="1" stop-color="#ED696D"/>
</linearGradient>
<linearGradient id="paint28_linear_18_166" x1="1606.15" y1="818.137" x2="3293.61" y2="810.821" gradientUnits="userSpaceOnUse">
<stop stop-color="#C64A49"/>
<stop offset="1" stop-color="#ED696D"/>
</linearGradient>
<linearGradient id="paint29_linear_18_166" x1="892.995" y1="1599.18" x2="1182.64" y2="1247.94" gradientUnits="userSpaceOnUse">
<stop stop-color="#C64A49"/>
<stop offset="1" stop-color="#ED696D"/>
</linearGradient>
<linearGradient id="paint30_linear_18_166" x1="1785.7" y1="1624.55" x2="1559.01" y2="1226.76" gradientUnits="userSpaceOnUse">
<stop stop-color="#C64A49"/>
<stop offset="1" stop-color="#ED696D"/>
</linearGradient>
<linearGradient id="paint31_linear_18_166" x1="6172.83" y1="1625.39" x2="6052.21" y2="1245.97" gradientUnits="userSpaceOnUse">
<stop stop-color="#C64A49"/>
<stop offset="1" stop-color="#ED696D"/>
</linearGradient>
<linearGradient id="paint32_linear_18_166" x1="6172.83" y1="1625.39" x2="6052.21" y2="1245.97" gradientUnits="userSpaceOnUse">
<stop stop-color="#C64A49"/>
<stop offset="1" stop-color="#ED696D"/>
</linearGradient>
<linearGradient id="paint33_linear_18_166" x1="4413.67" y1="750.078" x2="3971.02" y2="426.335" gradientUnits="userSpaceOnUse">
<stop stop-color="#C64A49"/>
<stop offset="1" stop-color="#ED696D"/>
</linearGradient>
<linearGradient id="paint34_linear_18_166" x1="5494.36" y1="777.955" x2="4378.15" y2="175.362" gradientUnits="userSpaceOnUse">
<stop stop-color="#C64A49"/>
<stop offset="1" stop-color="#ED696D"/>
</linearGradient>
<linearGradient id="paint35_linear_18_166" x1="1628.82" y1="2460.16" x2="1807.78" y2="2145.59" gradientUnits="userSpaceOnUse">
<stop stop-color="#C64A49"/>
<stop offset="1" stop-color="#ED696D"/>
</linearGradient>
<linearGradient id="paint36_linear_18_166" x1="6030.01" y1="2469.91" x2="6228.35" y2="2139.5" gradientUnits="userSpaceOnUse">
<stop stop-color="#C64A49"/>
<stop offset="1" stop-color="#ED696D"/>
</linearGradient>
<linearGradient id="paint37_linear_18_166" x1="6686.12" y1="2545.5" x2="6433.46" y2="2131.06" gradientUnits="userSpaceOnUse">
<stop stop-color="#C64A49"/>
<stop offset="1" stop-color="#ED696D"/>
</linearGradient>
<linearGradient id="paint38_linear_18_166" x1="5734.1" y1="2560.56" x2="5375.8" y2="2083.59" gradientUnits="userSpaceOnUse">
<stop stop-color="#C64A49"/>
<stop offset="1" stop-color="#ED696D"/>
</linearGradient>
<linearGradient id="paint39_linear_18_166" x1="2271" y1="2491.37" x2="2100.32" y2="2138.65" gradientUnits="userSpaceOnUse">
<stop stop-color="#C64A49"/>
<stop offset="1" stop-color="#ED696D"/>
</linearGradient>
<linearGradient id="paint40_linear_18_166" x1="2215" y1="1800.5" x2="1957.5" y2="2154" gradientUnits="userSpaceOnUse">
<stop stop-color="#C34746"/>
<stop offset="1" stop-color="#EC686C"/>
</linearGradient>
<linearGradient id="paint41_linear_18_166" x1="6252.5" y1="1639" x2="6252.5" y2="2154" gradientUnits="userSpaceOnUse">
<stop stop-color="#C34746"/>
<stop offset="1" stop-color="#EC686C"/>
</linearGradient>
<linearGradient id="paint42_linear_18_166" x1="3967.5" y1="184" x2="3824.5" y2="515" gradientUnits="userSpaceOnUse">
<stop stop-color="#C24645"/>
<stop offset="1" stop-color="#F26C71"/>
<stop offset="1" stop-color="#F26C71"/>
</linearGradient>
<linearGradient id="paint43_linear_18_166" x1="1533" y1="831" x2="1251" y2="1529" gradientUnits="userSpaceOnUse">
<stop stop-color="#C34746"/>
<stop offset="1" stop-color="#EC686C"/>
</linearGradient>
<linearGradient id="paint44_linear_18_166" x1="3135" y1="831" x2="2853" y2="1529" gradientUnits="userSpaceOnUse">
<stop stop-color="#C34746"/>
<stop offset="1" stop-color="#EC686C"/>
</linearGradient>
<linearGradient id="paint45_linear_18_166" x1="4845" y1="831" x2="4563" y2="1529" gradientUnits="userSpaceOnUse">
<stop stop-color="#C34746"/>
<stop offset="1" stop-color="#EC686C"/>
</linearGradient>
<linearGradient id="paint46_linear_18_166" x1="1749.5" y1="2378.5" x2="1421" y2="3092" gradientUnits="userSpaceOnUse">
<stop stop-color="#C34746"/>
<stop offset="1" stop-color="#EC686C"/>
</linearGradient>
<linearGradient id="paint47_linear_18_166" x1="2169.5" y1="2431.5" x2="2404" y2="2982.5" gradientUnits="userSpaceOnUse">
<stop stop-color="#C34746"/>
<stop offset="1" stop-color="#EC686C"/>
</linearGradient>
<linearGradient id="paint48_linear_18_166" x1="1628.82" y1="2460.16" x2="1807.78" y2="2145.59" gradientUnits="userSpaceOnUse">
<stop stop-color="#C64A49"/>
<stop offset="1" stop-color="#ED696D"/>
</linearGradient>
<linearGradient id="paint49_linear_18_166" x1="2271" y1="2491.37" x2="2100.32" y2="2138.65" gradientUnits="userSpaceOnUse">
<stop stop-color="#C64A49"/>
<stop offset="1" stop-color="#ED696D"/>
</linearGradient>
<linearGradient id="paint50_linear_18_166" x1="1749.5" y1="2378.5" x2="1421" y2="3092" gradientUnits="userSpaceOnUse">
<stop stop-color="#C34746"/>
<stop offset="1" stop-color="#EC686C"/>
</linearGradient>
<linearGradient id="paint51_linear_18_166" x1="416.822" y1="2449.16" x2="595.781" y2="2134.59" gradientUnits="userSpaceOnUse">
<stop stop-color="#C64A49"/>
<stop offset="1" stop-color="#ED696D"/>
</linearGradient>
<linearGradient id="paint52_linear_18_166" x1="537.5" y1="2367.5" x2="209" y2="3081" gradientUnits="userSpaceOnUse">
<stop stop-color="#C34746"/>
<stop offset="1" stop-color="#EC686C"/>
</linearGradient>
<linearGradient id="paint53_linear_18_166" x1="416.822" y1="2449.16" x2="595.781" y2="2134.59" gradientUnits="userSpaceOnUse">
<stop stop-color="#C64A49"/>
<stop offset="1" stop-color="#ED696D"/>
</linearGradient>
<linearGradient id="paint54_linear_18_166" x1="2169.5" y1="2431.5" x2="2404" y2="2982.5" gradientUnits="userSpaceOnUse">
<stop stop-color="#C34746"/>
<stop offset="1" stop-color="#EC686C"/>
</linearGradient>
<linearGradient id="paint55_linear_18_166" x1="1785.7" y1="1624.55" x2="1559.01" y2="1226.76" gradientUnits="userSpaceOnUse">
<stop stop-color="#C64A49"/>
<stop offset="1" stop-color="#ED696D"/>
</linearGradient>
<linearGradient id="paint56_linear_18_166" x1="1628.82" y1="2460.16" x2="1807.78" y2="2145.59" gradientUnits="userSpaceOnUse">
<stop stop-color="#C64A49"/>
<stop offset="1" stop-color="#ED696D"/>
</linearGradient>
<linearGradient id="paint57_linear_18_166" x1="1284.13" y1="2530.33" x2="834.722" y2="2020.06" gradientUnits="userSpaceOnUse">
<stop stop-color="#C64A49"/>
<stop offset="1" stop-color="#ED696D"/>
</linearGradient>
<linearGradient id="paint58_linear_18_166" x1="2271" y1="2491.37" x2="2100.32" y2="2138.65" gradientUnits="userSpaceOnUse">
<stop stop-color="#C64A49"/>
<stop offset="1" stop-color="#ED696D"/>
</linearGradient>
<linearGradient id="paint59_linear_18_166" x1="2215" y1="1800.5" x2="1957.5" y2="2154" gradientUnits="userSpaceOnUse">
<stop stop-color="#C34746"/>
<stop offset="1" stop-color="#EC686C"/>
</linearGradient>
<linearGradient id="paint60_linear_18_166" x1="1749.5" y1="2378.5" x2="1421" y2="3092" gradientUnits="userSpaceOnUse">
<stop stop-color="#C34746"/>
<stop offset="1" stop-color="#EC686C"/>
</linearGradient>
<linearGradient id="paint61_linear_18_166" x1="2169.5" y1="2431.5" x2="2404" y2="2982.5" gradientUnits="userSpaceOnUse">
<stop stop-color="#C34746"/>
<stop offset="1" stop-color="#EC686C"/>
</linearGradient>
<linearGradient id="paint62_linear_18_166" x1="3174.49" y1="735.922" x2="3648.89" y2="482.51" gradientUnits="userSpaceOnUse">
<stop stop-color="#C64A49"/>
<stop offset="1" stop-color="#ED696D"/>
</linearGradient>
<linearGradient id="paint63_linear_18_166" x1="2271" y1="2491.37" x2="2100.32" y2="2138.65" gradientUnits="userSpaceOnUse">
<stop stop-color="#C64A49"/>
<stop offset="1" stop-color="#ED696D"/>
</linearGradient>
<linearGradient id="paint64_linear_18_166" x1="1749.5" y1="2378.5" x2="1421" y2="3092" gradientUnits="userSpaceOnUse">
<stop stop-color="#C34746"/>
<stop offset="1" stop-color="#EC686C"/>
</linearGradient>
<linearGradient id="paint65_linear_18_166" x1="2169.5" y1="2431.5" x2="2404" y2="2982.5" gradientUnits="userSpaceOnUse">
<stop stop-color="#C34746"/>
<stop offset="1" stop-color="#EC686C"/>
</linearGradient>
<linearGradient id="paint66_linear_18_166" x1="5956" y1="2547.5" x2="5885.5" y2="3017" gradientUnits="userSpaceOnUse">
<stop stop-color="#C34746"/>
<stop offset="1" stop-color="#EC686C"/>
</linearGradient>
<linearGradient id="paint67_linear_18_166" x1="6873" y1="2536.5" x2="6802.5" y2="3006" gradientUnits="userSpaceOnUse">
<stop stop-color="#C34746"/>
<stop offset="1" stop-color="#EC686C"/>
</linearGradient>
<linearGradient id="paint68_linear_18_166" x1="5817.5" y1="706" x2="5935" y2="1087" gradientUnits="userSpaceOnUse">
<stop stop-color="#C34746"/>
<stop offset="1" stop-color="#EC686C"/>
</linearGradient>
<linearGradient id="paint69_linear_18_166" x1="857.5" y1="1749" x2="638" y2="2309.5" gradientUnits="userSpaceOnUse">
<stop stop-color="#C34746"/>
<stop offset="1" stop-color="#EC686C"/>
</linearGradient>
</defs>
</svg>
